<?xml version="1.0" encoding="UTF-8"?><svg id="Layer_1" xmlns="http://www.w3.org/2000/svg" width="240" height="110" xmlns:xlink="http://www.w3.org/1999/xlink" viewBox="0 0 240 110"><defs><clipPath id="clippath"><rect x="23.2553" y="21.4935" width="66.8994" height="66.8994" transform="translate(-22.2422 56.189) rotate(-45)" style="fill:none; stroke-width:0px;"/></clipPath></defs><g id="Layer_2"><g id="Layer_1-2"><image width="237" height="237" transform="translate(.392 -1.37) scale(.478)" xlink:href="../5CE09293EBDA989B.png" style="isolation:isolate; opacity:.75;"/><rect x="23.2553" y="21.4935" width="66.8994" height="66.8994" transform="translate(-22.2422 56.189) rotate(-45)" style="fill:#00446a; stroke-width:0px;"/><g style="clip-path:url(#clippath);"><path d="m29.5,34.6l-2.5,2.6s21.7,13.6,26.7,31.1c2.9,10.2.5,32,.5,32l2.5,2.4,8.7-8.7s7.2-22,3.3-31.3c-6.3-15.3-39.2-28.1-39.2-28.1Z" style="fill:#fff; stroke-width:0px;"/><path d="m92,42.9c-2.4,4.6-5.7,8.6-9.5,12.1-8.5,7.7-12.4,9.5-15.5,11.6l-1,12.7s11-9.3,17.7-17.2c7.9-9.3,10-17.4,10-17.4l-1.7-1.8Z" style="fill:#fff; stroke-width:0px;"/></g><image width="287" height="152" transform="translate(103.0594 16.0092) scale(.4787)" xlink:href="../5CE09293EBDA9899.png" style="isolation:isolate; opacity:.75;"/><path d="m123.6,35.8l-.7,1.3-4.9.4v10.3c0,.7.2,1.3.6,1.8.5.4,1.2.6,1.8.5,1,0,2.1-.3,2.9-.8h.2v1.1c-1,1.1-2.5,1.8-4,1.7-1.2,0-2.4-.5-3.2-1.4-.6-.8-.9-1.6-.9-3.9v-9.2l-2.4-.4.7-1.3h1.8c.2-1.4.4-2.7.7-4.1.5-.6,1.2-1,1.9-1.1l-.1,5.2h5.6v-.1Z" style="fill:#262324; stroke-width:0px;"/><path d="m127.8,43.1v.5c0,4.2,2.7,6.7,5.9,6.7.5,0,.9-.1,1.3-.2.9-.7,1.9-1.3,2.8-1.8l.2.6c-.5.9-1.1,1.7-1.9,2.3-1.2.5-2.5.8-3.8.9-4.3,0-7.4-3.1-7.4-8,0-5.2,3.7-8.7,7.7-8.7,3.2-.1,5.8,2.4,5.9,5.5v.6c0,.4-.1,1-.4,1.2-1.1.3-2.2.5-3.3.5l-7-.1Zm7.8-1.3c.1-.4.1-.7.1-1.1,0-2-1.2-4.2-3.4-4.2-3.3,0-4.5,3.8-4.5,5.2h7.8v.1Z" style="fill:#262324; stroke-width:0px;"/><path d="m142.5,38.1l-1.9-.8.2-.7c1.3-.6,2.8-1.1,4.2-1.3l-.2,2.9h.1c3-2.5,4.3-2.9,5.7-2.9,3.7,0,4.8,3.1,4.8,5.8v8.2c0,.3.1.6.4.7l2.2.9-.2.8h-6.7l.2-.9,1.4-1c.1-1,.1-3.7.1-8.4,0-2.9-1.7-4-3.6-4-1.7.2-3.2,1-4.3,2.2,0,2.7,0,9.6.1,10.4l2.1.9-.2.8h-6.7l.3-.8,2-1c.1-.6.1-3.8.1-8.5l-.1-3.3Z" style="fill:#262324; stroke-width:0px;"/><path d="m170.8,38.1l-1.9-.8.3-.7c1.3-.6,2.8-1.1,4.2-1.3l-.2,3h0c2.3-2,4.1-3,5.7-3,1.9,0,3.7,1.2,4.3,3.1,2.6-2.3,4.2-3.1,6-3.1,2.8,0,4.8,2.1,4.8,5.4v8.6c0,.3.2.5.6.7l2,.8-.2.8h-6.9l.2-.8,1.6-1c.1-1.4.2-3.8.1-7.8,0-1.9-.2-4.7-3.6-4.7-1.3,0-2.8.7-4.4,2.2.1,1,.2,2.1.2,3.1v7.1l2.2,1-.2.8h-6.4l.2-.8,1.7-.9c0-2.6.1-5.5.1-8.1,0-1.7-.2-4.4-3.6-4.4-1.3,0-2.9,1.1-4.1,2.2v10.3l2.3.9-.2.8h-6.9l.2-.8,2-.9c0-.8.1-4.1.1-7.1l-.2-4.6Z" style="fill:#262324; stroke-width:0px;"/><path d="m199.3,36.3c1.4-.5,2.8-.8,4.3-1v7.2c0,4,0,6.1.1,7.2l2.6,1-.3.8h-7.4l.2-.8,2.1-1c0-1.2.1-4.4.1-7.3v-4.6l-1.9-.9.2-.6Zm3.1-8.3c.7.4,1.3,1.1,1.7,1.8l-.1.3c-.4.7-1,1.4-1.7,1.9l-.2.1c-.7-.5-1.2-1.1-1.6-1.9l.1-.2c.4-.8,1-1.4,1.8-1.9v-.1Z" style="fill:#262324; stroke-width:0px;"/><path d="m215.8,50.8l-.3.8h-7.5l.2-.8,2.3-1c0-1.5.1-3.8.1-12.6,0-3.2,0-7-.1-8.8l-2.1-.8.4-.8c1.5-.4,3-.8,4.5-1-.1,4-.1,7.3-.1,11.2,0,7.2,0,9.9.1,12.7l2.5,1.1Z" style="fill:#262324; stroke-width:0px;"/><path d="m219.8,43.1v.5c0,4.2,2.7,6.7,5.9,6.7.5,0,.9-.1,1.3-.2.9-.7,1.9-1.3,2.8-1.8l.2.6c-.5.9-1.1,1.7-1.9,2.3-1.2.5-2.5.8-3.8.9-4.3,0-7.4-3.1-7.4-8,0-5.2,3.7-8.7,7.7-8.7,3.2-.1,5.8,2.4,5.9,5.5v.6c0,.4-.1,1-.4,1.2-1.1.3-2.2.5-3.3.5l-7-.1Zm7.8-1.3c.1-.4.2-.7.1-1.1,0-2-1.1-4.2-3.4-4.2-3.3,0-4.5,3.8-4.5,5.2l7.8.1Z" style="fill:#262324; stroke-width:0px;"/><path d="m120,58.4c.9,0,1.8.3,2.5.8.5-.3,1-.6,1.6-.8l.2.1c-.2,1.2-.5,2.5-.9,3.7l-.4.2c-.3-.8-.6-1.5-.8-2.3-.6-.4-1.4-.6-2.1-.6-1.5-.1-2.9,1-3,2.6v.2c0,1,.5,1.9,1.4,2.3,1,.6,2.2,1.2,3.6,1.9,2.4,1.2,2.8,2.6,2.8,3.9,0,3.8-3.6,4.8-5.6,4.8-1.7,0-3.3-.6-4.7-1.6.3-1,.6-2,1.1-3l.4-.2c.3,1.1.6,2.2.8,3.4.7.3,1.5.5,2.3.4,2.2,0,3.6-1.2,3.6-3.1,0-1.1-.7-2.1-1.7-2.5-1.2-.7-2.4-1.2-3.6-2-1.4-.7-2.3-2.2-2.3-3.7.1-2.5,2.1-4.4,4.6-4.4,0-.2.1-.2.2-.1h0Z" style="fill:#262324; stroke-width:0px;"/><path d="m139.8,58.4c3.7,0,8.3,2.4,8.4,8.1.2,3.8-2.3,7.3-6,8.3h0c3.1,1.9,5.4,3,7.1,3.9l-.3.4c-1.8.1-3.6-.3-5.3-1.2-1.1-.5-2.3-1.2-4.5-2.5-.4-.2-.9-.4-1.4-.5-3.4-1-6.5-3.4-6.5-8-.1-4.6,3.5-8.4,8.1-8.5q.3,0,.4,0h0Zm-.1.9c-3.6,0-5.7,3.3-5.7,7.4,0,3.8,2.3,7.4,6.3,7.7,3.9-.4,5.4-4.1,5.4-7.7,0-3.9-2.4-7.4-6-7.4h0Z" style="fill:#262324; stroke-width:0px;"/><path d="m154.3,58.8h5.5l-.1.6-1.3.7v9.2c0,.9.2,1.8.7,2.6.9,1.2,2.4,1.9,3.9,1.8,1.5.1,2.9-.6,3.8-1.7.6-.9.9-2,.9-3.1.1-3.3,0-6.2,0-8.8l-1.8-.7.2-.6h5.1l-.1.6-2,.7c-.1.5-.1,1.2-.3,8.5,0,1.3-.3,2.6-1,3.7-1.2,1.8-3.2,2.8-5.3,2.6-2.3,0-4.4-.8-5.5-2.7-.6-1.1-.8-2.2-.7-3.4,0-3.5,0-7.3-.1-8.8l-2-.7.1-.5Z" style="fill:#262324; stroke-width:0px;"/><path d="m183.4,58.3l.1.1c0,.6.1,1.1.3,1.7.3,1,2.7,7,5,12.7.4.6.8.8,2.4,1.3l-.2.6h-5.3l.1-.5.9-.7c-.2-.6-.9-2.3-1.8-4.6-1.8.1-3.6.2-5.4.1-.9,2.3-1.2,3.2-1.6,4.3l2.1.8-.1.6h-5.3l.1-.6,1.7-.8c.7-1.4,3.3-7.5,5.3-12.5.1-.2.1-.5.1-.7l-.2-.7,1.8-1.1Zm-1,3.4c-1.1,3-1.7,4.5-2.3,6,.7,0,3.6.1,4.6.1-.9-2.5-1.6-4.4-2.3-6.1h0Z" style="fill:#262324; stroke-width:0px;"/><path d="m197.8,59.2c1.9-.3,3.7-.5,5.6-.5,3.9,0,5.9,1.4,5.9,4s-2,3.7-3.8,4.2h0c.5.9,2.3,3.5,3.7,5.2s1.8,2.2,2,2.6l-.2.2c-1.5,0-2.9-.7-3.9-1.9-1.6-1.9-3-3.8-4.3-5.9l.1-.1c2.3-.6,4-1.6,4-4,0-3-2.5-3.5-5.3-3.5v13.7l2.4.8-.2.6h-6.5l.2-.6,1.8-.8c.1-.9.2-3.2.2-6.3v-7l-2-.3.3-.4Z" style="fill:#262324; stroke-width:0px;"/><path d="m217.8,58.8h8.9c.7-.1,1.3-.2,2-.3l.1.1c0,.7-.4,2.7-.6,3.5l-.4.2c-.3-.6-.8-2.1-1-2.6l-4.9.2v6c2.2,0,4.6-.2,6.1-.3l.1.2c-.1.2-1.1,1.4-1.4,1.4s-4-.2-4.7-.2c0,1.6,0,4.5.1,6.5l5.1.2c.5-.7,1.5-2.2,2.1-2.8h.5c-.2,1.3-.5,2.6-.8,3.9-1.6-.1-2.9-.1-4.3-.1h-7.2l.2-.6,2-.7c.1-.3.1-2.9.1-7v-6.4l-2.1-.7.1-.5Z" style="fill:#262324; stroke-width:0px;"/><path d="m123.6,35.8l-.7,1.3-4.9.4v10.3c0,.7.2,1.3.6,1.8.5.4,1.2.6,1.8.5,1,0,2.1-.3,2.9-.8h.2v1.1c-1,1.1-2.5,1.8-4,1.7-1.2,0-2.4-.5-3.2-1.4-.6-.8-.9-1.6-.9-3.9v-9.2l-2.4-.4.7-1.3h1.8c.2-1.4.4-2.7.7-4.1.5-.6,1.2-1,1.9-1.1l-.1,5.2h5.6v-.1Z" style="fill:none; stroke:#fff; stroke-linecap:round;"/><path d="m127.8,43.1v.5c0,4.2,2.7,6.7,5.9,6.7.5,0,.9-.1,1.3-.2.9-.7,1.9-1.3,2.8-1.8l.2.6c-.5.9-1.1,1.7-1.9,2.3-1.2.5-2.5.8-3.8.9-4.3,0-7.4-3.1-7.4-8,0-5.2,3.7-8.7,7.7-8.7,3.2-.1,5.8,2.4,5.9,5.5v.6c0,.4-.1,1-.4,1.2-1.1.3-2.2.5-3.3.5l-7-.1Zm7.8-1.3c.1-.4.1-.7.1-1.1,0-2-1.2-4.2-3.4-4.2-3.3,0-4.5,3.8-4.5,5.2h7.8v.1Z" style="fill:none; stroke:#fff; stroke-linecap:round;"/><path d="m142.5,38.1l-1.9-.8.2-.7c1.3-.6,2.8-1.1,4.2-1.3l-.2,2.9h.1c3-2.5,4.3-2.9,5.7-2.9,3.7,0,4.8,3.1,4.8,5.8v8.2c0,.3.1.6.4.7l2.2.9-.2.8h-6.7l.2-.9,1.4-1c.1-1,.1-3.7.1-8.4,0-2.9-1.7-4-3.6-4-1.7.2-3.2,1-4.3,2.2,0,2.7,0,9.6.1,10.4l2.1.9-.2.8h-6.7l.3-.8,2-1c.1-.6.1-3.8.1-8.5l-.1-3.3Z" style="fill:none; stroke:#fff; stroke-linecap:round;"/><path d="m170.8,38.1l-1.9-.8.3-.7c1.3-.6,2.8-1.1,4.2-1.3l-.2,3h0c2.3-2,4.1-3,5.7-3,1.9,0,3.7,1.2,4.3,3.1,2.6-2.3,4.2-3.1,6-3.1,2.8,0,4.8,2.1,4.8,5.4v8.6c0,.3.2.5.6.7l2,.8-.2.8h-6.9l.2-.8,1.6-1c.1-1.4.2-3.8.1-7.8,0-1.9-.2-4.7-3.6-4.7-1.3,0-2.8.7-4.4,2.2.1,1,.2,2.1.2,3.1v7.1l2.2,1-.2.8h-6.4l.2-.8,1.7-.9c0-2.6.1-5.5.1-8.1,0-1.7-.2-4.4-3.6-4.4-1.3,0-2.9,1.1-4.1,2.2v10.3l2.3.9-.2.8h-6.9l.2-.8,2-.9c0-.8.1-4.1.1-7.1l-.2-4.6Z" style="fill:none; stroke:#fff; stroke-linecap:round;"/><path d="m199.3,36.3c1.4-.5,2.8-.8,4.3-1v7.2c0,4,0,6.1.1,7.2l2.6,1-.3.8h-7.4l.2-.8,2.1-1c0-1.2.1-4.4.1-7.3v-4.6l-1.9-.9.2-.6Zm3.1-8.3c.7.4,1.3,1.1,1.7,1.8l-.1.3c-.4.7-1,1.4-1.7,1.9l-.2.1c-.7-.5-1.2-1.1-1.6-1.9l.1-.2c.4-.8,1-1.4,1.8-1.9v-.1Z" style="fill:none; stroke:#fff; stroke-linecap:round;"/><path d="m215.8,50.8l-.3.8h-7.5l.2-.8,2.3-1c0-1.5.1-3.8.1-12.6,0-3.2,0-7-.1-8.8l-2.1-.8.4-.8c1.5-.4,3-.8,4.5-1-.1,4-.1,7.3-.1,11.2,0,7.2,0,9.9.1,12.7l2.5,1.1Z" style="fill:none; stroke:#fff; stroke-linecap:round;"/><path d="m219.8,43.1v.5c0,4.2,2.7,6.7,5.9,6.7.5,0,.9-.1,1.3-.2.9-.7,1.9-1.3,2.8-1.8l.2.6c-.5.9-1.1,1.7-1.9,2.3-1.2.5-2.5.8-3.8.9-4.3,0-7.4-3.1-7.4-8,0-5.2,3.7-8.7,7.7-8.7,3.2-.1,5.8,2.4,5.9,5.5v.6c0,.4-.1,1-.4,1.2-1.1.3-2.2.5-3.3.5l-7-.1Zm7.8-1.3c.1-.4.2-.7.1-1.1,0-2-1.1-4.2-3.4-4.2-3.3,0-4.5,3.8-4.5,5.2l7.8.1Z" style="fill:none; stroke:#fff; stroke-linecap:round;"/><path d="m120,58.4c.9,0,1.8.3,2.5.8.5-.3,1-.6,1.6-.8l.2.1c-.2,1.2-.5,2.5-.9,3.7l-.4.2c-.3-.8-.6-1.5-.8-2.3-.6-.4-1.4-.6-2.1-.6-1.5-.1-2.9,1-3,2.6v.2c0,1,.5,1.9,1.4,2.3,1,.6,2.2,1.2,3.6,1.9,2.4,1.2,2.8,2.6,2.8,3.9,0,3.8-3.6,4.8-5.6,4.8-1.7,0-3.3-.6-4.7-1.6.3-1,.6-2,1.1-3l.4-.2c.3,1.1.6,2.2.8,3.4.7.3,1.5.5,2.3.4,2.2,0,3.6-1.2,3.6-3.1,0-1.1-.7-2.1-1.7-2.5-1.2-.7-2.4-1.2-3.6-2-1.4-.7-2.3-2.2-2.3-3.7.1-2.5,2.1-4.4,4.6-4.4,0-.2.1-.2.2-.1h0Z" style="fill:none; stroke:#fff; stroke-linecap:round;"/><path d="m139.8,58.4c3.7,0,8.3,2.4,8.4,8.1.2,3.8-2.3,7.3-6,8.3h0c3.1,1.9,5.4,3,7.1,3.9l-.3.4c-1.8.1-3.6-.3-5.3-1.2-1.1-.5-2.3-1.2-4.5-2.5-.4-.2-.9-.4-1.4-.5-3.4-1-6.5-3.4-6.5-8-.1-4.6,3.5-8.4,8.1-8.5q.3,0,.4,0h0Zm-.1.9c-3.6,0-5.7,3.3-5.7,7.4,0,3.8,2.3,7.4,6.3,7.7,3.9-.4,5.4-4.1,5.4-7.7,0-3.9-2.4-7.4-6-7.4h0Z" style="fill:none; stroke:#fff; stroke-linecap:round;"/><path d="m154.3,58.8h5.5l-.1.6-1.3.7v9.2c0,.9.2,1.8.7,2.6.9,1.2,2.4,1.9,3.9,1.8,1.5.1,2.9-.6,3.8-1.7.6-.9.9-2,.9-3.1.1-3.3,0-6.2,0-8.8l-1.8-.7.2-.6h5.1l-.1.6-2,.7c-.1.5-.1,1.2-.3,8.5,0,1.3-.3,2.6-1,3.7-1.2,1.8-3.2,2.8-5.3,2.6-2.3,0-4.4-.8-5.5-2.7-.6-1.1-.8-2.2-.7-3.4,0-3.5,0-7.3-.1-8.8l-2-.7.1-.5Z" style="fill:none; stroke:#fff; stroke-linecap:round;"/><path d="m183.4,58.3l.1.1c0,.6.1,1.1.3,1.7.3,1,2.7,7,5,12.7.4.6.8.8,2.4,1.3l-.2.6h-5.3l.1-.5.9-.7c-.2-.6-.9-2.3-1.8-4.6-1.8.1-3.6.2-5.4.1-.9,2.3-1.2,3.2-1.6,4.3l2.1.8-.1.6h-5.3l.1-.6,1.7-.8c.7-1.4,3.3-7.5,5.3-12.5.1-.2.1-.5.1-.7l-.2-.7,1.8-1.1Zm-1,3.4c-1.1,3-1.7,4.5-2.3,6,.7,0,3.6.1,4.6.1-.9-2.5-1.6-4.4-2.3-6.1h0Z" style="fill:none; stroke:#fff; stroke-linecap:round;"/><path d="m197.8,59.2c1.9-.3,3.7-.5,5.6-.5,3.9,0,5.9,1.4,5.9,4s-2,3.7-3.8,4.2h0c.5.9,2.3,3.5,3.7,5.2s1.8,2.2,2,2.6l-.2.2c-1.5,0-2.9-.7-3.9-1.9-1.6-1.9-3-3.8-4.3-5.9l.1-.1c2.3-.6,4-1.6,4-4,0-3-2.5-3.5-5.3-3.5v13.7l2.4.8-.2.6h-6.5l.2-.6,1.8-.8c.1-.9.2-3.2.2-6.3v-7l-2-.3.3-.4Z" style="fill:none; stroke:#fff; stroke-linecap:round;"/><path d="m217.8,58.8h8.9c.7-.1,1.3-.2,2-.3l.1.1c0,.7-.4,2.7-.6,3.5l-.4.2c-.3-.6-.8-2.1-1-2.6l-4.9.2v6c2.2,0,4.6-.2,6.1-.3l.1.2c-.1.2-1.1,1.4-1.4,1.4s-4-.2-4.7-.2c0,1.6,0,4.5.1,6.5l5.1.2c.5-.7,1.5-2.2,2.1-2.8h.5c-.2,1.3-.5,2.6-.8,3.9-1.6-.1-2.9-.1-4.3-.1h-7.2l.2-.6,2-.7c.1-.3.1-2.9.1-7v-6.4l-2.1-.7.1-.5Z" style="fill:none; stroke:#fff; stroke-linecap:round;"/><path d="m123.6,35.8l-.7,1.3-4.9.4v10.3c0,.7.2,1.3.6,1.8.5.4,1.2.6,1.8.5,1,0,2.1-.3,2.9-.8h.2v1.1c-1,1.1-2.5,1.8-4,1.7-1.2,0-2.4-.5-3.2-1.4-.6-.8-.9-1.6-.9-3.9v-9.2l-2.4-.4.7-1.3h1.8c.2-1.4.4-2.7.7-4.1.5-.6,1.2-1,1.9-1.1l-.1,5.2h5.6v-.1Z" style="stroke-width:0px;"/><path d="m127.8,43.1v.5c0,4.2,2.7,6.7,5.9,6.7.5,0,.9-.1,1.3-.2.9-.7,1.9-1.3,2.8-1.8l.2.6c-.5.9-1.1,1.7-1.9,2.3-1.2.5-2.5.8-3.8.9-4.3,0-7.4-3.1-7.4-8,0-5.2,3.7-8.7,7.7-8.7,3.2-.1,5.8,2.4,5.9,5.5v.6c0,.4-.1,1-.4,1.2-1.1.3-2.2.5-3.3.5l-7-.1Zm7.8-1.3c.1-.4.1-.7.1-1.1,0-2-1.2-4.2-3.4-4.2-3.3,0-4.5,3.8-4.5,5.2h7.8v.1Z" style="stroke-width:0px;"/><path d="m142.5,38.1l-1.9-.8.2-.7c1.3-.6,2.8-1.1,4.2-1.3l-.2,2.9h.1c3-2.5,4.3-2.9,5.7-2.9,3.7,0,4.8,3.1,4.8,5.8v8.2c0,.3.1.6.4.7l2.2.9-.2.8h-6.7l.2-.9,1.4-1c.1-1,.1-3.7.1-8.4,0-2.9-1.7-4-3.6-4-1.7.2-3.2,1-4.3,2.2,0,2.7,0,9.6.1,10.4l2.1.9-.2.8h-6.7l.3-.8,2-1c.1-.6.1-3.8.1-8.5l-.1-3.3Z" style="stroke-width:0px;"/><path d="m170.8,38.1l-1.9-.8.3-.7c1.3-.6,2.8-1.1,4.2-1.3l-.2,3h0c2.3-2,4.1-3,5.7-3,1.9,0,3.7,1.2,4.3,3.1,2.6-2.3,4.2-3.1,6-3.1,2.8,0,4.8,2.1,4.8,5.4v8.6c0,.3.2.5.6.7l2,.8-.2.8h-6.9l.2-.8,1.6-1c.1-1.4.2-3.8.1-7.8,0-1.9-.2-4.7-3.6-4.7-1.3,0-2.8.7-4.4,2.2.1,1,.2,2.1.2,3.1v7.1l2.2,1-.2.8h-6.4l.2-.8,1.7-.9c0-2.6.1-5.5.1-8.1,0-1.7-.2-4.4-3.6-4.4-1.3,0-2.9,1.1-4.1,2.2v10.3l2.3.9-.2.8h-6.9l.2-.8,2-.9c0-.8.1-4.1.1-7.1l-.2-4.6Z" style="stroke-width:0px;"/><path d="m199.3,36.3c1.4-.5,2.8-.8,4.3-1v7.2c0,4,0,6.1.1,7.2l2.6,1-.3.8h-7.4l.2-.8,2.1-1c0-1.2.1-4.4.1-7.3v-4.6l-1.9-.9.2-.6Zm3.1-8.3c.7.4,1.3,1.1,1.7,1.8l-.1.3c-.4.7-1,1.4-1.7,1.9l-.2.1c-.7-.5-1.2-1.1-1.6-1.9l.1-.2c.4-.8,1-1.4,1.8-1.9v-.1Z" style="stroke-width:0px;"/><path d="m215.8,50.8l-.3.8h-7.5l.2-.8,2.3-1c0-1.5.1-3.8.1-12.6,0-3.2,0-7-.1-8.8l-2.1-.8.4-.8c1.5-.4,3-.8,4.5-1-.1,4-.1,7.3-.1,11.2,0,7.2,0,9.9.1,12.7l2.5,1.1Z" style="stroke-width:0px;"/><path d="m219.8,43.1v.5c0,4.2,2.7,6.7,5.9,6.7.5,0,.9-.1,1.3-.2.9-.7,1.9-1.3,2.8-1.8l.2.6c-.5.9-1.1,1.7-1.9,2.3-1.2.5-2.5.8-3.8.9-4.3,0-7.4-3.1-7.4-8,0-5.2,3.7-8.7,7.7-8.7,3.2-.1,5.8,2.4,5.9,5.5v.6c0,.4-.1,1-.4,1.2-1.1.3-2.2.5-3.3.5l-7-.1Zm7.8-1.3c.1-.4.2-.7.1-1.1,0-2-1.1-4.2-3.4-4.2-3.3,0-4.5,3.8-4.5,5.2l7.8.1Z" style="stroke-width:0px;"/><path d="m120,58.4c.9,0,1.8.3,2.5.8.5-.3,1-.6,1.6-.8l.2.1c-.2,1.2-.5,2.5-.9,3.7l-.4.2c-.3-.8-.6-1.5-.8-2.3-.6-.4-1.4-.6-2.1-.6-1.5-.1-2.9,1-3,2.6v.2c0,1,.5,1.9,1.4,2.3,1,.6,2.2,1.2,3.6,1.9,2.4,1.2,2.8,2.6,2.8,3.9,0,3.8-3.6,4.8-5.6,4.8-1.7,0-3.3-.6-4.7-1.6.3-1,.6-2,1.1-3l.4-.2c.3,1.1.6,2.2.8,3.4.7.3,1.5.5,2.3.4,2.2,0,3.6-1.2,3.6-3.1,0-1.1-.7-2.1-1.7-2.5-1.2-.7-2.4-1.2-3.6-2-1.4-.7-2.3-2.2-2.3-3.7.1-2.5,2.1-4.4,4.6-4.4,0-.2.1-.2.2-.1h0Z" style="stroke-width:0px;"/><path d="m139.8,58.4c3.7,0,8.3,2.4,8.4,8.1.2,3.8-2.3,7.3-6,8.3h0c3.1,1.9,5.4,3,7.1,3.9l-.3.4c-1.8.1-3.6-.3-5.3-1.2-1.1-.5-2.3-1.2-4.5-2.5-.4-.2-.9-.4-1.4-.5-3.4-1-6.5-3.4-6.5-8-.1-4.6,3.5-8.4,8.1-8.5q.3,0,.4,0h0Zm-.1.9c-3.6,0-5.7,3.3-5.7,7.4,0,3.8,2.3,7.4,6.3,7.7,3.9-.4,5.4-4.1,5.4-7.7,0-3.9-2.4-7.4-6-7.4h0Z" style="stroke-width:0px;"/><path d="m154.3,58.8h5.5l-.1.6-1.3.7v9.2c0,.9.2,1.8.7,2.6.9,1.2,2.4,1.9,3.9,1.8,1.5.1,2.9-.6,3.8-1.7.6-.9.9-2,.9-3.1.1-3.3,0-6.2,0-8.8l-1.8-.7.2-.6h5.1l-.1.6-2,.7c-.1.5-.1,1.2-.3,8.5,0,1.3-.3,2.6-1,3.7-1.2,1.8-3.2,2.8-5.3,2.6-2.3,0-4.4-.8-5.5-2.7-.6-1.1-.8-2.2-.7-3.4,0-3.5,0-7.3-.1-8.8l-2-.7.1-.5Z" style="stroke-width:0px;"/><path d="m183.4,58.3l.1.1c0,.6.1,1.1.3,1.7.3,1,2.7,7,5,12.7.4.6.8.8,2.4,1.3l-.2.6h-5.3l.1-.5.9-.7c-.2-.6-.9-2.3-1.8-4.6-1.8.1-3.6.2-5.4.1-.9,2.3-1.2,3.2-1.6,4.3l2.1.8-.1.6h-5.3l.1-.6,1.7-.8c.7-1.4,3.3-7.5,5.3-12.5.1-.2.1-.5.1-.7l-.2-.7,1.8-1.1Zm-1,3.4c-1.1,3-1.7,4.5-2.3,6,.7,0,3.6.1,4.6.1-.9-2.5-1.6-4.4-2.3-6.1h0Z" style="stroke-width:0px;"/><path d="m197.8,59.2c1.9-.3,3.7-.5,5.6-.5,3.9,0,5.9,1.4,5.9,4s-2,3.7-3.8,4.2h0c.5.9,2.3,3.5,3.7,5.2s1.8,2.2,2,2.6l-.2.2c-1.5,0-2.9-.7-3.9-1.9-1.6-1.9-3-3.8-4.3-5.9l.1-.1c2.3-.6,4-1.6,4-4,0-3-2.5-3.5-5.3-3.5v13.7l2.4.8-.2.6h-6.5l.2-.6,1.8-.8c.1-.9.2-3.2.2-6.3v-7l-2-.3.3-.4Z" style="stroke-width:0px;"/><path d="m217.8,58.8h8.9c.7-.1,1.3-.2,2-.3l.1.1c0,.7-.4,2.7-.6,3.5l-.4.2c-.3-.6-.8-2.1-1-2.6l-4.9.2v6c2.2,0,4.6-.2,6.1-.3l.1.2c-.1.2-1.1,1.4-1.4,1.4s-4-.2-4.7-.2c0,1.6,0,4.5.1,6.5l5.1.2c.5-.7,1.5-2.2,2.1-2.8h.5c-.2,1.3-.5,2.6-.8,3.9-1.6-.1-2.9-.1-4.3-.1h-7.2l.2-.6,2-.7c.1-.3.1-2.9.1-7v-6.4l-2.1-.7.1-.5Z" style="stroke-width:0px;"/></g></g></svg>